# Blender v2.79 (sub 0) OBJ File: 'hexagon.blend'
# www.blender.org
mtllib hexagon.mtl
o Sphere
v -0.007694 -0.114227 -0.848898
v 0.742306 0.114702 -0.415885
v 0.742306 -0.114227 -0.415885
v 0.742306 0.114702 0.450141
v 0.742306 -0.114227 0.450141
v -0.007694 0.114702 0.883153
v -0.007694 -0.114227 0.883153
v -0.757694 0.114702 0.450140
v -0.757694 -0.114227 0.450140
v -0.757694 0.114702 -0.415885
v -0.757694 -0.114227 -0.415885
v -0.007694 0.114702 -0.848898
v 0.742306 0.114702 -0.415885
v 0.742306 0.114702 0.450141
v -0.007694 0.114702 0.883153
v -0.757694 0.114702 0.450140
v -0.757694 0.114702 -0.415885
v -0.007694 0.114702 -0.848898
vn 0.5000 -0.0000 -0.8660
vn 0.0000 0.0000 1.0000
vn 1.0000 -0.0000 0.0000
vn 0.5000 -0.0000 0.8660
vn -0.5000 0.0000 0.8660
vn -1.0000 0.0000 -0.0000
vn -0.5000 -0.0000 -0.8660
vn 0.0000 -1.0000 0.0000
vn 0.0000 1.0000 0.0000
usemtl None
s off
f 1//1 12//1 2//1 3//1
f 10//2 8//2 16//2 17//2
f 3//3 2//3 4//3 5//3
f 4//2 2//2 13//2 14//2
f 5//4 4//4 6//4 7//4
f 6//2 4//2 14//2 15//2
f 7//5 6//5 8//5 9//5
f 8//2 6//2 15//2 16//2
f 9//6 8//6 10//6 11//6
f 12//2 10//2 17//2 18//2
f 11//7 10//7 12//7 1//7
f 2//2 12//2 18//2 13//2
f 1//8 3//8 5//8 7//8 9//8 11//8
f 13//9 18//9 17//9 16//9 15//9 14//9
